<mxfile host="app.diagrams.net" modified="2024-03-17T03:29:58.514Z" agent="Mozilla/5.0 (Windows NT 10.0; Win64; x64) AppleWebKit/537.36 (KHTML, like Gecko) Chrome/122.0.0.0 Safari/537.36 Edg/122.0.0.0" version="23.0.2" etag="QwqdBGPsRXRTBxj_P2ko" type="github">
  <diagram name="Trang-1" id="RL06Z-CkQ_VNJCv6R80n">
    <mxGraphModel>
      <root>
        <mxCell id="0" />
        <mxCell id="1" parent="0" />
      </root>
    </mxGraphModel>
  </diagram>
</mxfile>
